<svg width="35" height="35" viewBox="0 0 35 35" fill="none" xmlns="http://www.w3.org/2000/svg">
<path fill-rule="evenodd" clip-rule="evenodd" d="M19.0939 3.04576C21.4446 0.0148342 24.7127 0 24.7127 0C24.7127 0 25.1987 2.84964 22.8635 5.59475C20.37 8.52593 17.5357 8.04629 17.5357 8.04629C17.5357 8.04629 17.0035 5.74103 19.0939 3.04576" fill="black"/>
<path fill-rule="evenodd" clip-rule="evenodd" d="M17.8336 10.0432C19.043 10.0432 21.2874 8.41699 24.2089 8.41699C29.2377 8.41699 31.216 11.9176 31.216 11.9176C31.216 11.9176 27.3467 13.8528 27.3467 18.5486C27.3467 23.846 32.1667 25.6715 32.1667 25.6715C32.1667 25.6715 28.7973 34.9491 24.2463 34.9491C22.1559 34.9491 20.5309 33.571 18.3284 33.571C16.0841 33.571 13.8567 35.0005 12.4061 35.0005C8.25027 35.0005 3 26.1999 3 19.1258C3 12.1657 7.44407 8.51451 11.6123 8.51451C14.3221 8.51451 16.4249 10.0432 17.8336 10.0432" fill="black"/>
</svg>
